<?xml version="1.0" encoding="utf-8"?>
<!-- Generator: Adobe Illustrator 24.0.2, SVG Export Plug-In . SVG Version: 6.00 Build 0)  -->
<svg version="1.1" id="Capa_1" xmlns="http://www.w3.org/2000/svg" xmlns:xlink="http://www.w3.org/1999/xlink" x="0px" y="0px"
	 viewBox="0 0 1069.29 821.86" style="enable-background:new 0 0 1069.29 821.86;" xml:space="preserve">
<style type="text/css">
	.st0{fill:none;stroke:#CCCCCC;}
	.st1{fill:#2A3A51;}
	.st2{fill:#646F7E;}
	.st3{fill:#D9D9D9;}
	.st4{font-family:'Arial-BoldMT';}
	.st5{font-size:15px;}
	.st6{font-family:'ArialMT';}
	.st7{enable-background:new    ;}
	.st8{font-size:10px;}
	.st9{font-size:16px;}
	.st10{fill:#D8D8D8;}
	.st11{fill:#D7D7D8;}
	.st12{fill:#D6D6D7;}
	.st13{fill:#D5D6D6;}
	.st14{fill:#D4D5D5;}
	.st15{fill:#D3D4D5;}
	.st16{fill:#D3D3D4;}
	.st17{fill:#D2D2D3;}
	.st18{fill:#D1D1D3;}
	.st19{fill:#D0D1D2;}
	.st20{fill:#CFD0D1;}
	.st21{fill:#CECFD0;}
	.st22{fill:#CDCED0;}
	.st23{fill:#CCCDCF;}
	.st24{fill:#CBCCCE;}
	.st25{fill:#CACCCD;}
	.st26{fill:#C9CBCD;}
	.st27{fill:#C8CACC;}
	.st28{fill:#C7C9CB;}
	.st29{fill:#C6C8CB;}
	.st30{fill:#C6C7CA;}
	.st31{fill:#C5C6C9;}
	.st32{fill:#C4C6C8;}
	.st33{fill:#C3C5C8;}
	.st34{fill:#C2C4C7;}
	.st35{fill:#C1C3C6;}
	.st36{fill:#C0C2C6;}
	.st37{fill:#BFC1C5;}
	.st38{fill:#BEC1C4;}
	.st39{fill:#BDC0C3;}
	.st40{fill:#BCBFC3;}
	.st41{fill:#BBBEC2;}
	.st42{fill:#BABDC1;}
	.st43{fill:#BABCC1;}
	.st44{fill:#B9BCC0;}
	.st45{fill:#B8BBBF;}
	.st46{fill:#B7BABE;}
	.st47{fill:#B6B9BE;}
	.st48{fill:#B5B8BD;}
	.st49{fill:#B4B7BC;}
	.st50{fill:#B3B7BB;}
	.st51{fill:#B2B6BB;}
	.st52{fill:#B1B5BA;}
	.st53{fill:#B0B4B9;}
	.st54{fill:#AFB3B9;}
	.st55{fill:#AEB2B8;}
	.st56{fill:#ADB1B7;}
	.st57{fill:#ADB1B6;}
	.st58{fill:#ACB0B6;}
	.st59{fill:#ABAFB5;}
	.st60{fill:#AAAEB4;}
	.st61{fill:#A9ADB4;}
	.st62{fill:#A8ACB3;}
	.st63{fill:#A7ACB2;}
	.st64{fill:#A6ABB1;}
	.st65{fill:#A5AAB1;}
	.st66{fill:#A4A9B0;}
	.st67{fill:#A3A8AF;}
	.st68{fill:#A2A7AF;}
	.st69{fill:#A1A7AE;}
	.st70{fill:#A1A6AD;}
	.st71{fill:#A0A5AC;}
	.st72{fill:#9FA4AC;}
	.st73{fill:#9EA3AB;}
	.st74{fill:#9DA2AA;}
	.st75{fill:#9CA1AA;}
	.st76{fill:#9BA1A9;}
	.st77{fill:#9AA0A8;}
	.st78{fill:#999FA7;}
	.st79{fill:#989EA7;}
	.st80{fill:#979DA6;}
	.st81{fill:#969CA5;}
	.st82{fill:#959CA4;}
	.st83{fill:#949BA4;}
	.st84{fill:#949AA3;}
	.st85{fill:#9399A2;}
	.st86{fill:#9298A2;}
	.st87{fill:#9197A1;}
	.st88{fill:#9097A0;}
	.st89{fill:#8F969F;}
	.st90{fill:#8E959F;}
	.st91{fill:#8D949E;}
	.st92{fill:#8C939D;}
	.st93{fill:#8B929D;}
	.st94{fill:#8A919C;}
	.st95{fill:#89919B;}
	.st96{fill:#88909A;}
	.st97{fill:#888F9A;}
	.st98{fill:#878E99;}
	.st99{fill:#868D98;}
	.st100{fill:#858C98;}
	.st101{fill:#848C97;}
	.st102{fill:#838B96;}
	.st103{fill:#828A95;}
	.st104{fill:#818995;}
	.st105{fill:#808894;}
	.st106{fill:#7F8793;}
	.st107{fill:#7E8792;}
	.st108{fill:#7D8692;}
	.st109{fill:#7C8591;}
	.st110{fill:#7B8490;}
	.st111{fill:#7B8390;}
	.st112{fill:#7A828F;}
	.st113{fill:#79828E;}
	.st114{fill:#78818D;}
	.st115{fill:#77808D;}
	.st116{fill:#767F8C;}
	.st117{fill:#757E8B;}
	.st118{fill:#747D8B;}
	.st119{fill:#737C8A;}
	.st120{fill:#727C89;}
	.st121{fill:#717B88;}
	.st122{fill:#707A88;}
	.st123{fill:#6F7987;}
	.st124{fill:#6F7886;}
	.st125{fill:#6E7786;}
	.st126{fill:#6D7785;}
	.st127{fill:#6C7684;}
	.st128{fill:#6B7583;}
	.st129{fill:#6A7483;}
	.st130{fill:#697382;}
	.st131{fill:#687281;}
	.st132{fill:#677280;}
	.st133{fill:#667180;}
	.st134{fill:#65707F;}
	.st135{fill:#636E7E;}
	.st136{fill:#626D7D;}
	.st137{fill:#626C7C;}
	.st138{fill:#616C7B;}
	.st139{fill:#606B7B;}
	.st140{fill:#5F6A7A;}
	.st141{fill:#5E6979;}
	.st142{fill:#5D6879;}
	.st143{fill:#5C6778;}
	.st144{fill:#5B6777;}
	.st145{fill:#5A6676;}
	.st146{fill:#596576;}
	.st147{fill:#586475;}
	.st148{fill:#576374;}
	.st149{fill:#566274;}
	.st150{fill:#566273;}
	.st151{fill:#556172;}
	.st152{fill:#546071;}
	.st153{fill:#535F71;}
	.st154{fill:#525E70;}
	.st155{fill:#515D6F;}
	.st156{fill:#505C6F;}
	.st157{fill:#4F5C6E;}
	.st158{fill:#4E5B6D;}
	.st159{fill:#4D5A6C;}
	.st160{fill:#4C596C;}
	.st161{fill:#4B586B;}
	.st162{fill:#4A576A;}
	.st163{fill:#495769;}
	.st164{fill:#495669;}
	.st165{fill:#485568;}
	.st166{fill:#475467;}
	.st167{fill:#465367;}
	.st168{fill:#455266;}
	.st169{fill:#445265;}
	.st170{fill:#435164;}
	.st171{fill:#425064;}
	.st172{fill:#414F63;}
	.st173{fill:#404E62;}
	.st174{fill:#3F4D62;}
	.st175{fill:#3E4D61;}
	.st176{fill:#3D4C60;}
	.st177{fill:#3D4B5F;}
	.st178{fill:#3C4A5F;}
	.st179{fill:#3B495E;}
	.st180{fill:#3A485D;}
	.st181{fill:#39475D;}
	.st182{fill:#38475C;}
	.st183{fill:#37465B;}
	.st184{fill:#36455A;}
	.st185{fill:#35445A;}
	.st186{fill:#344359;}
	.st187{fill:#334258;}
	.st188{fill:#324257;}
	.st189{fill:#314157;}
	.st190{fill:#304056;}
	.st191{fill:#303F55;}
	.st192{fill:#2F3E55;}
	.st193{fill:#2E3D54;}
	.st194{fill:#2D3D53;}
	.st195{fill:#2C3C52;}
	.st196{fill:#2B3B52;}
</style>
<g transform="translate(353.5,351)">
	<path id="p_1053.5" class="st0" d="M69.29,421.86c-193.3,0-350-156.7-350-350s156.7-350,350-350s350,156.7,350,350
		S262.59,421.86,69.29,421.86z"/>
</g>
<path id="p_749.3440292418993" class="st1" d="M352.06,539.43c-75.01,0.01-135.83-60.8-135.83-135.81s60.8-135.83,135.81-135.83
	c0.01,0,0.01,0,0.02,0c75.01-0.01,135.83,60.8,135.83,135.81c0.01,75.01-60.8,135.83-135.81,135.83
	C352.07,539.43,352.06,539.43,352.06,539.43z"/>
<path id="p_1021.2644859191608" class="st2" d="M629.89,533.52c-71.75,0-129.91-58.16-129.91-129.91s58.16-129.91,129.91-129.91
	S759.8,331.86,759.8,403.61S701.64,533.52,629.89,533.52z"/>
<path id="p_1102.3701247563752" class="st2" d="M496.59,747.92c-65.95,0.01-119.42-53.45-119.43-119.41
	c-0.01-65.95,53.45-119.42,119.41-119.43c0.01,0,0.02,0,0.03,0c65.95-0.01,119.42,53.45,119.43,119.41s-53.45,119.42-119.41,119.43
	C496.61,747.92,496.6,747.92,496.59,747.92z"/>
<path id="p_656.3710303058385" class="st2" d="M496.13,302.38c-53.97,0-97.73-43.75-97.73-97.73s43.75-97.73,97.73-97.73
	s97.73,43.75,97.73,97.73S550.11,302.38,496.13,302.38z"/>
<path id="p_429.53534323751853" class="st3" d="M312.44,259.24c-41.42,0-75.01-33.58-75.01-75.01s33.58-75.01,75.01-75.01
	s75.01,33.58,75.01,75.01S353.86,259.24,312.44,259.24z"/>
<text transform="matrix(1 0 0 1 333.2988 392.108)" class="st4 st5">Clima</text>
<text transform="matrix(1 0 0 1 349.2766 418.2509)" class="st6 st5">5</text>
<text transform="matrix(1 0 0 1 585.3098 398.5366)" class="st4 st5">Falla mecánica</text>
<text transform="matrix(1 0 0 1 632.2481 424.6794)" class="st6 st5">4</text>
<text transform="matrix(1 0 0 1 445.0544 631.1434)" class="st4 st5">No identificado</text>
<text transform="matrix(1 0 0 1 493.813 655.1428)" class="st6 st5">4</text>
<text transform="matrix(1 0 0 1 449.7557 193.153)" class="st7"><tspan x="0" y="0" class="st4 st5">Problema de </tspan><tspan x="10.42" y="18" class="st4 st5">visibilidad</tspan></text>
<text transform="matrix(1 0 0 1 493.3518 229.5816)" class="st6 st5">4</text>
<text transform="matrix(1 0 0 1 290.4152 172.7366)" class="st7"><tspan x="0" y="0" class="st4 st5">Poco </tspan><tspan x="-32.92" y="18" class="st4 st5">mantenimiento</tspan></text>
<text transform="matrix(1 0 0 1 309.6553 210.4509)" class="st6 st5">2</text>
<circle class="st0" cx="879.29" cy="183.57" r="25"/>
<text transform="matrix(1 0 0 1 934.2857 188.5714)" class="st6 st8">43</text>
<circle class="st0" cx="879.29" cy="283.57" r="50"/>
<text transform="matrix(1 0 0 1 934.2857 288.5714)" class="st6 st8">141</text>
<text transform="matrix(1 0 0 1 829.2857 109.1428)" class="st4 st9">Número de muertes</text>
<g transform="translate(0,16)">
	<g transform="translate(0,0)">
		<rect x="829.29" y="712.71" class="st3" width="1" height="10"/>
		<text transform="matrix(1 0 0 1 829.2857 735.7143)" class="st6 st8">2.0</text>
	</g>
	<g transform="translate(1,0)">
		<rect x="829.29" y="712.71" class="st10" width="1" height="10"/>
	</g>
	<g transform="translate(2,0)">
		<rect x="829.29" y="712.71" class="st11" width="1" height="10"/>
	</g>
	<g transform="translate(3,0)">
		<rect x="829.29" y="712.71" class="st12" width="1" height="10"/>
	</g>
	<g transform="translate(4,0)">
		<rect x="829.29" y="712.71" class="st13" width="1" height="10"/>
	</g>
	<g transform="translate(5,0)">
		<rect x="829.29" y="712.71" class="st14" width="1" height="10"/>
	</g>
	<g transform="translate(6,0)">
		<rect x="829.29" y="712.71" class="st15" width="1" height="10"/>
	</g>
	<g transform="translate(7,0)">
		<rect x="829.29" y="712.71" class="st16" width="1" height="10"/>
	</g>
	<g transform="translate(8,0)">
		<rect x="829.29" y="712.71" class="st17" width="1" height="10"/>
	</g>
	<g transform="translate(9,0)">
		<rect x="829.29" y="712.71" class="st18" width="1" height="10"/>
	</g>
	<g transform="translate(10,0)">
		<rect x="829.29" y="712.71" class="st19" width="1" height="10"/>
	</g>
	<g transform="translate(11,0)">
		<rect x="829.29" y="712.71" class="st20" width="1" height="10"/>
	</g>
	<g transform="translate(12,0)">
		<rect x="829.29" y="712.71" class="st21" width="1" height="10"/>
	</g>
	<g transform="translate(13,0)">
		<rect x="829.29" y="712.71" class="st22" width="1" height="10"/>
	</g>
	<g transform="translate(14,0)">
		<rect x="829.29" y="712.71" class="st23" width="1" height="10"/>
	</g>
	<g transform="translate(15,0)">
		<rect x="829.29" y="712.71" class="st24" width="1" height="10"/>
	</g>
	<g transform="translate(16,0)">
		<rect x="829.29" y="712.71" class="st25" width="1" height="10"/>
	</g>
	<g transform="translate(17,0)">
		<rect x="829.29" y="712.71" class="st26" width="1" height="10"/>
	</g>
	<g transform="translate(18,0)">
		<rect x="829.29" y="712.71" class="st27" width="1" height="10"/>
	</g>
	<g transform="translate(19,0)">
		<rect x="829.29" y="712.71" class="st28" width="1" height="10"/>
	</g>
	<g transform="translate(20,0)">
		<rect x="829.29" y="712.71" class="st29" width="1" height="10"/>
	</g>
	<g transform="translate(21,0)">
		<rect x="829.29" y="712.71" class="st30" width="1" height="10"/>
	</g>
	<g transform="translate(22,0)">
		<rect x="829.29" y="712.71" class="st31" width="1" height="10"/>
	</g>
	<g transform="translate(23,0)">
		<rect x="829.29" y="712.71" class="st32" width="1" height="10"/>
	</g>
	<g transform="translate(24,0)">
		<rect x="829.29" y="712.71" class="st33" width="1" height="10"/>
	</g>
	<g transform="translate(25,0)">
		<rect x="829.29" y="712.71" class="st34" width="1" height="10"/>
	</g>
	<g transform="translate(26,0)">
		<rect x="829.29" y="712.71" class="st35" width="1" height="10"/>
	</g>
	<g transform="translate(27,0)">
		<rect x="829.29" y="712.71" class="st36" width="1" height="10"/>
	</g>
	<g transform="translate(28,0)">
		<rect x="829.29" y="712.71" class="st37" width="1" height="10"/>
	</g>
	<g transform="translate(29,0)">
		<rect x="829.29" y="712.71" class="st38" width="1" height="10"/>
	</g>
	<g transform="translate(30,0)">
		<rect x="829.29" y="712.71" class="st39" width="1" height="10"/>
	</g>
	<g transform="translate(31,0)">
		<rect x="829.29" y="712.71" class="st40" width="1" height="10"/>
	</g>
	<g transform="translate(32,0)">
		<rect x="829.29" y="712.71" class="st41" width="1" height="10"/>
	</g>
	<g transform="translate(33,0)">
		<rect x="829.29" y="712.71" class="st42" width="1" height="10"/>
	</g>
	<g transform="translate(34,0)">
		<rect x="829.29" y="712.71" class="st43" width="1" height="10"/>
	</g>
	<g transform="translate(35,0)">
		<rect x="829.29" y="712.71" class="st44" width="1" height="10"/>
	</g>
	<g transform="translate(36,0)">
		<rect x="829.29" y="712.71" class="st45" width="1" height="10"/>
	</g>
	<g transform="translate(37,0)">
		<rect x="829.29" y="712.71" class="st46" width="1" height="10"/>
	</g>
	<g transform="translate(38,0)">
		<rect x="829.29" y="712.71" class="st47" width="1" height="10"/>
	</g>
	<g transform="translate(39,0)">
		<rect x="829.29" y="712.71" class="st48" width="1" height="10"/>
	</g>
	<g transform="translate(40,0)">
		<rect x="829.29" y="712.71" class="st49" width="1" height="10"/>
	</g>
	<g transform="translate(41,0)">
		<rect x="829.29" y="712.71" class="st50" width="1" height="10"/>
	</g>
	<g transform="translate(42,0)">
		<rect x="829.29" y="712.71" class="st51" width="1" height="10"/>
	</g>
	<g transform="translate(43,0)">
		<rect x="829.29" y="712.71" class="st52" width="1" height="10"/>
	</g>
	<g transform="translate(44,0)">
		<rect x="829.29" y="712.71" class="st53" width="1" height="10"/>
	</g>
	<g transform="translate(45,0)">
		<rect x="829.29" y="712.71" class="st54" width="1" height="10"/>
	</g>
	<g transform="translate(46,0)">
		<rect x="829.29" y="712.71" class="st55" width="1" height="10"/>
	</g>
	<g transform="translate(47,0)">
		<rect x="829.29" y="712.71" class="st56" width="1" height="10"/>
	</g>
	<g transform="translate(48,0)">
		<rect x="829.29" y="712.71" class="st57" width="1" height="10"/>
	</g>
	<g transform="translate(49,0)">
		<rect x="829.29" y="712.71" class="st58" width="1" height="10"/>
	</g>
	<g transform="translate(50,0)">
		<rect x="829.29" y="712.71" class="st59" width="1" height="10"/>
	</g>
	<g transform="translate(51,0)">
		<rect x="829.29" y="712.71" class="st60" width="1" height="10"/>
	</g>
	<g transform="translate(52,0)">
		<rect x="829.29" y="712.71" class="st61" width="1" height="10"/>
	</g>
	<g transform="translate(53,0)">
		<rect x="829.29" y="712.71" class="st62" width="1" height="10"/>
	</g>
	<g transform="translate(54,0)">
		<rect x="829.29" y="712.71" class="st63" width="1" height="10"/>
	</g>
	<g transform="translate(55,0)">
		<rect x="829.29" y="712.71" class="st64" width="1" height="10"/>
	</g>
	<g transform="translate(56,0)">
		<rect x="829.29" y="712.71" class="st65" width="1" height="10"/>
	</g>
	<g transform="translate(57,0)">
		<rect x="829.29" y="712.71" class="st66" width="1" height="10"/>
	</g>
	<g transform="translate(58,0)">
		<rect x="829.29" y="712.71" class="st67" width="1" height="10"/>
	</g>
	<g transform="translate(59,0)">
		<rect x="829.29" y="712.71" class="st68" width="1" height="10"/>
	</g>
	<g transform="translate(60,0)">
		<rect x="829.29" y="712.71" class="st69" width="1" height="10"/>
	</g>
	<g transform="translate(61,0)">
		<rect x="829.29" y="712.71" class="st70" width="1" height="10"/>
	</g>
	<g transform="translate(62,0)">
		<rect x="829.29" y="712.71" class="st71" width="1" height="10"/>
	</g>
	<g transform="translate(63,0)">
		<rect x="829.29" y="712.71" class="st72" width="1" height="10"/>
	</g>
	<g transform="translate(64,0)">
		<rect x="829.29" y="712.71" class="st73" width="1" height="10"/>
	</g>
	<g transform="translate(65,0)">
		<rect x="829.29" y="712.71" class="st74" width="1" height="10"/>
	</g>
	<g transform="translate(66,0)">
		<rect x="829.29" y="712.71" class="st75" width="1" height="10"/>
	</g>
	<g transform="translate(67,0)">
		<rect x="829.29" y="712.71" class="st76" width="1" height="10"/>
	</g>
	<g transform="translate(68,0)">
		<rect x="829.29" y="712.71" class="st77" width="1" height="10"/>
	</g>
	<g transform="translate(69,0)">
		<rect x="829.29" y="712.71" class="st78" width="1" height="10"/>
	</g>
	<g transform="translate(70,0)">
		<rect x="829.29" y="712.71" class="st79" width="1" height="10"/>
	</g>
	<g transform="translate(71,0)">
		<rect x="829.29" y="712.71" class="st80" width="1" height="10"/>
	</g>
	<g transform="translate(72,0)">
		<rect x="829.29" y="712.71" class="st81" width="1" height="10"/>
	</g>
	<g transform="translate(73,0)">
		<rect x="829.29" y="712.71" class="st82" width="1" height="10"/>
	</g>
	<g transform="translate(74,0)">
		<rect x="829.29" y="712.71" class="st83" width="1" height="10"/>
	</g>
	<g transform="translate(75,0)">
		<rect x="829.29" y="712.71" class="st84" width="1" height="10"/>
	</g>
	<g transform="translate(76,0)">
		<rect x="829.29" y="712.71" class="st85" width="1" height="10"/>
	</g>
	<g transform="translate(77,0)">
		<rect x="829.29" y="712.71" class="st86" width="1" height="10"/>
	</g>
	<g transform="translate(78,0)">
		<rect x="829.29" y="712.71" class="st87" width="1" height="10"/>
	</g>
	<g transform="translate(79,0)">
		<rect x="829.29" y="712.71" class="st88" width="1" height="10"/>
	</g>
	<g transform="translate(80,0)">
		<rect x="829.29" y="712.71" class="st89" width="1" height="10"/>
	</g>
	<g transform="translate(81,0)">
		<rect x="829.29" y="712.71" class="st90" width="1" height="10"/>
	</g>
	<g transform="translate(82,0)">
		<rect x="829.29" y="712.71" class="st91" width="1" height="10"/>
	</g>
	<g transform="translate(83,0)">
		<rect x="829.29" y="712.71" class="st92" width="1" height="10"/>
	</g>
	<g transform="translate(84,0)">
		<rect x="829.29" y="712.71" class="st93" width="1" height="10"/>
	</g>
	<g transform="translate(85,0)">
		<rect x="829.29" y="712.71" class="st94" width="1" height="10"/>
	</g>
	<g transform="translate(86,0)">
		<rect x="829.29" y="712.71" class="st95" width="1" height="10"/>
	</g>
	<g transform="translate(87,0)">
		<rect x="829.29" y="712.71" class="st96" width="1" height="10"/>
	</g>
	<g transform="translate(88,0)">
		<rect x="829.29" y="712.71" class="st97" width="1" height="10"/>
	</g>
	<g transform="translate(89,0)">
		<rect x="829.29" y="712.71" class="st98" width="1" height="10"/>
	</g>
	<g transform="translate(90,0)">
		<rect x="829.29" y="712.71" class="st99" width="1" height="10"/>
	</g>
	<g transform="translate(91,0)">
		<rect x="829.29" y="712.71" class="st100" width="1" height="10"/>
	</g>
	<g transform="translate(92,0)">
		<rect x="829.29" y="712.71" class="st101" width="1" height="10"/>
	</g>
	<g transform="translate(93,0)">
		<rect x="829.29" y="712.71" class="st102" width="1" height="10"/>
	</g>
	<g transform="translate(94,0)">
		<rect x="829.29" y="712.71" class="st103" width="1" height="10"/>
	</g>
	<g transform="translate(95,0)">
		<rect x="829.29" y="712.71" class="st104" width="1" height="10"/>
	</g>
	<g transform="translate(96,0)">
		<rect x="829.29" y="712.71" class="st105" width="1" height="10"/>
	</g>
	<g transform="translate(97,0)">
		<rect x="829.29" y="712.71" class="st106" width="1" height="10"/>
	</g>
	<g transform="translate(98,0)">
		<rect x="829.29" y="712.71" class="st107" width="1" height="10"/>
	</g>
	<g transform="translate(99,0)">
		<rect x="829.29" y="712.71" class="st108" width="1" height="10"/>
	</g>
	<g transform="translate(100,0)">
		<rect x="829.29" y="712.71" class="st109" width="1" height="10"/>
	</g>
	<g transform="translate(101,0)">
		<rect x="829.29" y="712.71" class="st110" width="1" height="10"/>
	</g>
	<g transform="translate(102,0)">
		<rect x="829.29" y="712.71" class="st111" width="1" height="10"/>
	</g>
	<g transform="translate(103,0)">
		<rect x="829.29" y="712.71" class="st112" width="1" height="10"/>
	</g>
	<g transform="translate(104,0)">
		<rect x="829.29" y="712.71" class="st113" width="1" height="10"/>
	</g>
	<g transform="translate(105,0)">
		<rect x="829.29" y="712.71" class="st114" width="1" height="10"/>
	</g>
	<g transform="translate(106,0)">
		<rect x="829.29" y="712.71" class="st115" width="1" height="10"/>
	</g>
	<g transform="translate(107,0)">
		<rect x="829.29" y="712.71" class="st116" width="1" height="10"/>
	</g>
	<g transform="translate(108,0)">
		<rect x="829.29" y="712.71" class="st117" width="1" height="10"/>
	</g>
	<g transform="translate(109,0)">
		<rect x="829.29" y="712.71" class="st118" width="1" height="10"/>
	</g>
	<g transform="translate(110,0)">
		<rect x="829.29" y="712.71" class="st119" width="1" height="10"/>
	</g>
	<g transform="translate(111,0)">
		<rect x="829.29" y="712.71" class="st120" width="1" height="10"/>
	</g>
	<g transform="translate(112,0)">
		<rect x="829.29" y="712.71" class="st121" width="1" height="10"/>
	</g>
	<g transform="translate(113,0)">
		<rect x="829.29" y="712.71" class="st122" width="1" height="10"/>
	</g>
	<g transform="translate(114,0)">
		<rect x="829.29" y="712.71" class="st123" width="1" height="10"/>
	</g>
	<g transform="translate(115,0)">
		<rect x="829.29" y="712.71" class="st124" width="1" height="10"/>
	</g>
	<g transform="translate(116,0)">
		<rect x="829.29" y="712.71" class="st125" width="1" height="10"/>
	</g>
	<g transform="translate(117,0)">
		<rect x="829.29" y="712.71" class="st126" width="1" height="10"/>
	</g>
	<g transform="translate(118,0)">
		<rect x="829.29" y="712.71" class="st127" width="1" height="10"/>
	</g>
	<g transform="translate(119,0)">
		<rect x="829.29" y="712.71" class="st128" width="1" height="10"/>
	</g>
	<g transform="translate(120,0)">
		<rect x="829.29" y="712.71" class="st129" width="1" height="10"/>
	</g>
	<g transform="translate(121,0)">
		<rect x="829.29" y="712.71" class="st130" width="1" height="10"/>
	</g>
	<g transform="translate(122,0)">
		<rect x="829.29" y="712.71" class="st131" width="1" height="10"/>
	</g>
	<g transform="translate(123,0)">
		<rect x="829.29" y="712.71" class="st132" width="1" height="10"/>
	</g>
	<g transform="translate(124,0)">
		<rect x="829.29" y="712.71" class="st133" width="1" height="10"/>
	</g>
	<g transform="translate(125,0)">
		<rect x="829.29" y="712.71" class="st134" width="1" height="10"/>
	</g>
	<g transform="translate(126,0)">
		<rect x="829.29" y="712.71" class="st2" width="1" height="10"/>
	</g>
	<g transform="translate(127,0)">
		<rect x="829.29" y="712.71" class="st135" width="1" height="10"/>
	</g>
	<g transform="translate(128,0)">
		<rect x="829.29" y="712.71" class="st136" width="1" height="10"/>
	</g>
	<g transform="translate(129,0)">
		<rect x="829.29" y="712.71" class="st137" width="1" height="10"/>
	</g>
	<g transform="translate(130,0)">
		<rect x="829.29" y="712.71" class="st138" width="1" height="10"/>
	</g>
	<g transform="translate(131,0)">
		<rect x="829.29" y="712.71" class="st139" width="1" height="10"/>
	</g>
	<g transform="translate(132,0)">
		<rect x="829.29" y="712.71" class="st140" width="1" height="10"/>
	</g>
	<g transform="translate(133,0)">
		<rect x="829.29" y="712.71" class="st141" width="1" height="10"/>
	</g>
	<g transform="translate(134,0)">
		<rect x="829.29" y="712.71" class="st142" width="1" height="10"/>
	</g>
	<g transform="translate(135,0)">
		<rect x="829.29" y="712.71" class="st143" width="1" height="10"/>
	</g>
	<g transform="translate(136,0)">
		<rect x="829.29" y="712.71" class="st144" width="1" height="10"/>
	</g>
	<g transform="translate(137,0)">
		<rect x="829.29" y="712.71" class="st145" width="1" height="10"/>
	</g>
	<g transform="translate(138,0)">
		<rect x="829.29" y="712.71" class="st146" width="1" height="10"/>
	</g>
	<g transform="translate(139,0)">
		<rect x="829.29" y="712.71" class="st147" width="1" height="10"/>
	</g>
	<g transform="translate(140,0)">
		<rect x="829.29" y="712.71" class="st148" width="1" height="10"/>
	</g>
	<g transform="translate(141,0)">
		<rect x="829.29" y="712.71" class="st149" width="1" height="10"/>
	</g>
	<g transform="translate(142,0)">
		<rect x="829.29" y="712.71" class="st150" width="1" height="10"/>
	</g>
	<g transform="translate(143,0)">
		<rect x="829.29" y="712.71" class="st151" width="1" height="10"/>
	</g>
	<g transform="translate(144,0)">
		<rect x="829.29" y="712.71" class="st152" width="1" height="10"/>
	</g>
	<g transform="translate(145,0)">
		<rect x="829.29" y="712.71" class="st153" width="1" height="10"/>
	</g>
	<g transform="translate(146,0)">
		<rect x="829.29" y="712.71" class="st154" width="1" height="10"/>
	</g>
	<g transform="translate(147,0)">
		<rect x="829.29" y="712.71" class="st155" width="1" height="10"/>
	</g>
	<g transform="translate(148,0)">
		<rect x="829.29" y="712.71" class="st156" width="1" height="10"/>
	</g>
	<g transform="translate(149,0)">
		<rect x="829.29" y="712.71" class="st157" width="1" height="10"/>
	</g>
	<g transform="translate(150,0)">
		<rect x="829.29" y="712.71" class="st158" width="1" height="10"/>
	</g>
	<g transform="translate(151,0)">
		<rect x="829.29" y="712.71" class="st159" width="1" height="10"/>
	</g>
	<g transform="translate(152,0)">
		<rect x="829.29" y="712.71" class="st160" width="1" height="10"/>
	</g>
	<g transform="translate(153,0)">
		<rect x="829.29" y="712.71" class="st161" width="1" height="10"/>
	</g>
	<g transform="translate(154,0)">
		<rect x="829.29" y="712.71" class="st162" width="1" height="10"/>
	</g>
	<g transform="translate(155,0)">
		<rect x="829.29" y="712.71" class="st163" width="1" height="10"/>
	</g>
	<g transform="translate(156,0)">
		<rect x="829.29" y="712.71" class="st164" width="1" height="10"/>
	</g>
	<g transform="translate(157,0)">
		<rect x="829.29" y="712.71" class="st165" width="1" height="10"/>
	</g>
	<g transform="translate(158,0)">
		<rect x="829.29" y="712.71" class="st166" width="1" height="10"/>
	</g>
	<g transform="translate(159,0)">
		<rect x="829.29" y="712.71" class="st167" width="1" height="10"/>
	</g>
	<g transform="translate(160,0)">
		<rect x="829.29" y="712.71" class="st168" width="1" height="10"/>
	</g>
	<g transform="translate(161,0)">
		<rect x="829.29" y="712.71" class="st169" width="1" height="10"/>
	</g>
	<g transform="translate(162,0)">
		<rect x="829.29" y="712.71" class="st170" width="1" height="10"/>
	</g>
	<g transform="translate(163,0)">
		<rect x="829.29" y="712.71" class="st171" width="1" height="10"/>
	</g>
	<g transform="translate(164,0)">
		<rect x="829.29" y="712.71" class="st172" width="1" height="10"/>
	</g>
	<g transform="translate(165,0)">
		<rect x="829.29" y="712.71" class="st173" width="1" height="10"/>
	</g>
	<g transform="translate(166,0)">
		<rect x="829.29" y="712.71" class="st174" width="1" height="10"/>
	</g>
	<g transform="translate(167,0)">
		<rect x="829.29" y="712.71" class="st175" width="1" height="10"/>
	</g>
	<g transform="translate(168,0)">
		<rect x="829.29" y="712.71" class="st176" width="1" height="10"/>
	</g>
	<g transform="translate(169,0)">
		<rect x="829.29" y="712.71" class="st177" width="1" height="10"/>
	</g>
	<g transform="translate(170,0)">
		<rect x="829.29" y="712.71" class="st178" width="1" height="10"/>
	</g>
	<g transform="translate(171,0)">
		<rect x="829.29" y="712.71" class="st179" width="1" height="10"/>
	</g>
	<g transform="translate(172,0)">
		<rect x="829.29" y="712.71" class="st180" width="1" height="10"/>
	</g>
	<g transform="translate(173,0)">
		<rect x="829.29" y="712.71" class="st181" width="1" height="10"/>
	</g>
	<g transform="translate(174,0)">
		<rect x="829.29" y="712.71" class="st182" width="1" height="10"/>
	</g>
	<g transform="translate(175,0)">
		<rect x="829.29" y="712.71" class="st183" width="1" height="10"/>
	</g>
	<g transform="translate(176,0)">
		<rect x="829.29" y="712.71" class="st184" width="1" height="10"/>
	</g>
	<g transform="translate(177,0)">
		<rect x="829.29" y="712.71" class="st185" width="1" height="10"/>
	</g>
	<g transform="translate(178,0)">
		<rect x="829.29" y="712.71" class="st186" width="1" height="10"/>
	</g>
	<g transform="translate(179,0)">
		<rect x="829.29" y="712.71" class="st187" width="1" height="10"/>
	</g>
	<g transform="translate(180,0)">
		<rect x="829.29" y="712.71" class="st188" width="1" height="10"/>
	</g>
	<g transform="translate(181,0)">
		<rect x="829.29" y="712.71" class="st189" width="1" height="10"/>
	</g>
	<g transform="translate(182,0)">
		<rect x="829.29" y="712.71" class="st190" width="1" height="10"/>
	</g>
	<g transform="translate(183,0)">
		<rect x="829.29" y="712.71" class="st191" width="1" height="10"/>
	</g>
	<g transform="translate(184,0)">
		<rect x="829.29" y="712.71" class="st192" width="1" height="10"/>
	</g>
	<g transform="translate(185,0)">
		<rect x="829.29" y="712.71" class="st193" width="1" height="10"/>
	</g>
	<g transform="translate(186,0)">
		<rect x="829.29" y="712.71" class="st194" width="1" height="10"/>
	</g>
	<g transform="translate(187,0)">
		<rect x="829.29" y="712.71" class="st195" width="1" height="10"/>
	</g>
	<g transform="translate(188,0)">
		<rect x="829.29" y="712.71" class="st196" width="1" height="10"/>
	</g>
	<g transform="translate(189,0)">
		<rect x="829.29" y="712.71" class="st1" width="1" height="10"/>
		<text transform="matrix(1 0 0 1 815.3843 735.7143)" class="st6 st8">5.0</text>
	</g>
</g>
<g>
	<text transform="matrix(1 0 0 1 829.2857 712.7143)" class="st4 st9">Número de accidentes </text>
</g>
</svg>
